HIERARCHY
ROOT hip
{
  OFFSET 0 0 0
  CHANNELS 6 Xposition Yposition Zposition Zrotation Yrotation Xrotation
  JOINT abdomen
  {
    OFFSET 0 20.6881 -0.73152
    CHANNELS 3 Zrotation Xrotation Yrotation
    JOINT chest
    {
      OFFSET 0 11.7043 -0.48768
      CHANNELS 3 Zrotation Xrotation Yrotation
      JOINT neck
      {
        OFFSET 0 22.1894 -2.19456
        CHANNELS 3 Zrotation Xrotation Yrotation
        JOINT head
        {
          OFFSET -0.24384 7.07133 1.2192
          CHANNELS 3 Zrotation Xrotation Yrotation
          JOINT leftEye
          {
            OFFSET 4.14528 8.04674 8.04672
            CHANNELS 3 Zrotation Xrotation Yrotation
            End Site
            {
              OFFSET 1 0 0
            }
          }
          JOINT rightEye
          {
            OFFSET -3.6576 8.04674 8.04672
            CHANNELS 3 Zrotation Xrotation Yrotation
            End Site
            {
              OFFSET 1 0 0
            }
          }
        }
      }
      JOINT rCollar
      {
        OFFSET -2.68224 19.2634 -4.8768
        CHANNELS 3 Zrotation Xrotation Yrotation
        JOINT rShldr
        {
          OFFSET -8.77824 -1.95073 1.46304
          CHANNELS 3 Zrotation Xrotation Yrotation
          JOINT rForeArm
          {
            OFFSET -28.1742 -1.7115 0.48768
            CHANNELS 3 Zrotation Xrotation Yrotation
            JOINT rHand
            {
              OFFSET -22.5879 0.773209 7.07136
              CHANNELS 3 Zrotation Xrotation Yrotation
              JOINT rThumb1
              {
                OFFSET -1.2192 -0.487915 3.41376
                CHANNELS 3 Zrotation Xrotation Yrotation
                JOINT rThumb2
                {
                  OFFSET -3.37035 -0.52449 3.41376
                  CHANNELS 3 Zrotation Xrotation Yrotation
                  End Site
                  {
                    OFFSET -1.78271 -1.18214 1.43049
                  }
                }
              }
              JOINT rIndex1
              {
                OFFSET -7.75947 0.938293 5.60832
                CHANNELS 3 Zrotation Xrotation Yrotation
                JOINT rIndex2
                {
                  OFFSET -2.54057 -0.884171 1.56538
                  CHANNELS 3 Zrotation Xrotation Yrotation
                  End Site
                  {
                    OFFSET -1.62519 -0.234802 1.16502
                  }
                }
              }
              JOINT rMid1
              {
                OFFSET -8.24714 1.18213 3.41376
                CHANNELS 3 Zrotation Xrotation Yrotation
                JOINT rMid2
                {
                  OFFSET -3.10165 -0.590103 1.0647
                  CHANNELS 3 Zrotation Xrotation Yrotation
                  End Site
                  {
                    OFFSET -2.48547 -0.328903 0.83742
                  }
                }
              }
              JOINT rRing1
              {
                OFFSET -8.82822 0.546677 1.51678
                CHANNELS 3 Zrotation Xrotation Yrotation
                JOINT rRing2
                {
                  OFFSET -2.60934 -0.819778 -0.0198488
                  CHANNELS 3 Zrotation Xrotation Yrotation
                  End Site
                  {
                    OFFSET -2.33842 -0.294052 0.168128
                  }
                }
              }
              JOINT rPinky1
              {
                OFFSET -8.27202 -0.0477905 -0.4584
                CHANNELS 3 Zrotation Xrotation Yrotation
                JOINT rPinky2
                {
                  OFFSET -1.82734 -0.647385 -0.700984
                  CHANNELS 3 Zrotation Xrotation Yrotation
                  End Site
                  {
                    OFFSET -1.69225 -0.51767 -0.607171
                  }
                }
              }
            }
          }
        }
      }
      JOINT lCollar
      {
        OFFSET 2.68224 19.2634 -4.8768
        CHANNELS 3 Zrotation Xrotation Yrotation
        JOINT lShldr
        {
          OFFSET 8.77824 -1.95073 1.46304
          CHANNELS 3 Zrotation Xrotation Yrotation
          JOINT lForeArm
          {
            OFFSET 28.1742 -1.7115 0.48768
            CHANNELS 3 Zrotation Xrotation Yrotation
            JOINT lHand
            {
              OFFSET 22.5879 0.773209 7.07136
              CHANNELS 3 Zrotation Xrotation Yrotation
              JOINT lThumb1
              {
                OFFSET 1.2192 -0.487915 3.41376
                CHANNELS 3 Zrotation Xrotation Yrotation
                JOINT lThumb2
                {
                  OFFSET 3.37035 -0.52449 3.41376
                  CHANNELS 3 Zrotation Xrotation Yrotation
                  End Site
                  {
                    OFFSET 1.78271 -1.18214 1.43049
                  }
                }
              }
              JOINT lIndex1
              {
                OFFSET 7.75947 0.938293 5.60832
                CHANNELS 3 Zrotation Xrotation Yrotation
                JOINT lIndex2
                {
                  OFFSET 2.54057 -0.884171 1.56538
                  CHANNELS 3 Zrotation Xrotation Yrotation
                  End Site
                  {
                    OFFSET 1.62519 -0.234802 1.16502
                  }
                }
              }
              JOINT lMid1
              {
                OFFSET 8.24714 1.18213 3.41376
                CHANNELS 3 Zrotation Xrotation Yrotation
                JOINT lMid2
                {
                  OFFSET 3.10165 -0.590103 1.0647
                  CHANNELS 3 Zrotation Xrotation Yrotation
                  End Site
                  {
                    OFFSET 2.48547 -0.328903 0.83742
                  }
                }
              }
              JOINT lRing1
              {
                OFFSET 8.82822 0.546677 1.51678
                CHANNELS 3 Zrotation Xrotation Yrotation
                JOINT lRing2
                {
                  OFFSET 2.60934 -0.819778 -0.0198488
                  CHANNELS 3 Zrotation Xrotation Yrotation
                  End Site
                  {
                    OFFSET 2.33842 -0.294052 0.168128
                  }
                }
              }
              JOINT lPinky1
              {
                OFFSET 8.27202 -0.0477905 -0.4584
                CHANNELS 3 Zrotation Xrotation Yrotation
                JOINT lPinky2
                {
                  OFFSET 1.82734 -0.647385 -0.700984
                  CHANNELS 3 Zrotation Xrotation Yrotation
                  End Site
                  {
                    OFFSET 1.69225 -0.51767 -0.607171
                  }
                }
              }
            }
          }
        }
      }
    }
  }
  JOINT rButtock
  {
    OFFSET -8.77824 4.35084 1.2192
    CHANNELS 3 Zrotation Xrotation Yrotation
    JOINT rThigh
    {
      OFFSET 0 -1.70687 -2.19456
      CHANNELS 3 Zrotation Xrotation Yrotation
      JOINT rShin
      {
        OFFSET 0 -36.8199 0.73152
        CHANNELS 3 Zrotation Xrotation Yrotation
        JOINT rFoot
        {
          OFFSET 0.73152 -45.1104 -5.12064
          CHANNELS 3 Zrotation Xrotation Yrotation
          End Site
          {
            OFFSET -1.1221 -3.69964 12.103
          }
        }
      }
    }
  }
  JOINT lButtock
  {
    OFFSET 8.77824 4.35084 1.2192
    CHANNELS 3 Zrotation Xrotation Yrotation
    JOINT lThigh
    {
      OFFSET 0 -1.70687 -2.19456
      CHANNELS 3 Zrotation Xrotation Yrotation
      JOINT lShin
      {
        OFFSET 0 -36.8199 0.73152
        CHANNELS 3 Zrotation Xrotation Yrotation
        JOINT lFoot
        {
          OFFSET -0.73152 -45.1104 -5.12064
          CHANNELS 3 Zrotation Xrotation Yrotation
          End Site
          {
            OFFSET 1.1221 -3.69964 12.103
          }
        }
      }
    }
  }
}
MOTION
Frames:	4
Frame Time:	0.03333
-11.761929889209569 51.69020080566406 -52.88300004834309 -17.208799570798874 -29.227401316165924 13.281199336051941 14.52120065689087 9.274249970912933 2.9477299377322197 2.195960059762001 -6.876880154013634 0.9307510033249855 0.03683800081489608 12.45909959077835 7.649829760193825 3.6554599553346634 -23.321799337863922 15.87629958987236 0.0 0.0 0.0 0.0 0.0 0.0 0.0 0.0 0.0 105.94500303268433 45.60249924659729 -57.169198393821716 -26.659599244594574 -44.869301319122314 93.193598985672 -4.9170999974012375 -51.494797468185425 -10.174800306558609 1.7630696902415366e-09 -2.9237412491056602e-09 1.1254996934439987e-10 3.034372753063508e-09 -4.901039574178867e-09 2.660272002685815e-10 1.7630696902415366e-09 -2.9237412491056602e-09 1.1254996934439987e-10 7.7309102565050125 5.474880114197731 0.41731400415301323 1.7630696902415366e-09 -2.9237412491056602e-09 1.1254996934439987e-10 2.905540131032467 0.9651830233633518 0.102901995414868 1.7630696902415366e-09 -2.9237412491056602e-09 1.1254996934439987e-10 10.27859978377819 0.7318009994924068 0.025912300043273717 1.7630696902415366e-09 -2.9237412491056602e-09 1.1254996934439987e-10 2.221670038998127 -0.733487019315362 -0.2089200052432716 0.0 0.0 0.0 -47.574700713157654 16.534199863672256 -35.57429909706116 14.333499670028687 -7.226760238409042 -26.22750073671341 1.9548200815916061 36.38389974832535 -5.943859666585922 1.2713030628219713e-09 7.30295823814231e-09 3.0388491722987965e-09 2.2816948330728337e-09 1.2270504612388322e-08 5.20799403602723e-09 1.2713030628219713e-09 7.30295823814231e-09 3.0388491722987965e-09 -7.7309102565050125 5.474880114197731 -0.41731400415301323 1.2713030628219713e-09 7.30295823814231e-09 3.0388491722987965e-09 -2.905540131032467 0.9651830233633518 -0.102901995414868 1.2713030628219713e-09 7.30295823814231e-09 3.0388491722987965e-09 -10.27859978377819 0.7318009994924068 -0.025912300043273717 1.2713030628219713e-09 7.30295823814231e-09 3.0388491722987965e-09 -2.221670038998127 -0.733487019315362 0.2089200052432716 0.0 0.0 0.0 -10.83059974014759 12.493300437927246 -2.870979867875576 0.07695980079006404 31.7836993932724 2.502259947359562 -8.361909985542297 -16.326899975538254 -33.10400068759918 0.0 0.0 0.0 86.27530217170715 -51.867597699165344 74.27070021629333 3.8784199208021164 76.36429846286774 -3.4385601058602333 -0.5150860128924251 0.8932579960674047 -6.182890087366104
-11.757229889277369 51.65800094604492 -52.889000048395246 -17.218699604272842 -29.10779893398285 13.30769956111908 14.576899409294128 9.244089871644974 2.81168008223176 2.198759950697422 -6.839970275759697 0.8898380119353533 0.016418600280303508 12.511399984359741 7.667170241475105 3.6132600903511047 -23.480401039123535 15.911699384450912 0.0 0.0 0.0 0.0 0.0 0.0 0.0 0.0 0.0 105.78899502754211 45.54460108280182 -56.94540023803711 -26.682599186897278 -44.815099239349365 93.08289885520935 -4.883970022201538 -51.37950003147125 -10.132399946451187 -2.0591528482327703e-10 1.4068746168049984e-10 -1.1254996934439987e-10 -3.4852121189032914e-10 2.148681232938543e-10 -2.0463630789890885e-10 -2.0591528482327703e-10 1.4068746168049984e-10 -1.1254996934439987e-10 7.7309102565050125 5.474880114197731 0.41731400415301323 -2.0591528482327703e-10 1.4068746168049984e-10 -1.1254996934439987e-10 2.905540131032467 0.9651830233633518 0.102901995414868 -2.0591528482327703e-10 1.4068746168049984e-10 -1.1254996934439987e-10 10.27859978377819 0.7318009994924068 0.025912300043273717 -2.0591528482327703e-10 1.4068746168049984e-10 -1.1254996934439987e-10 2.221670038998127 -0.733487019315362 -0.2089200052432716 0.0 0.0 0.0 -47.53480017185211 16.503299474716187 -35.641399919986725 14.28259938955307 -7.184789702296257 -26.124399304389954 2.0018799416720867 36.74460053443909 -6.022860109806061 9.336531547887716e-11 -3.1795366339792963e-09 -9.413270163349807e-10 1.3557155398302712e-10 -5.438209882413503e-09 -1.6268586477963254e-09 9.336531547887716e-11 -3.1795366339792963e-09 -9.413270163349807e-10 -7.7309102565050125 5.474880114197731 -0.41731400415301323 9.336531547887716e-11 -3.1795366339792963e-09 -9.413270163349807e-10 -2.905540131032467 0.9651830233633518 -0.102901995414868 9.336531547887716e-11 -3.1795366339792963e-09 -9.413270163349807e-10 -10.27859978377819 0.7318009994924068 -0.025912300043273717 9.336531547887716e-11 -3.1795366339792963e-09 -9.413270163349807e-10 -2.221670038998127 -0.733487019315362 0.2089200052432716 0.0 0.0 0.0 -10.752699673175812 12.580000162124634 -2.8563299775123596 0.078322499175556 31.67280077934265 2.5031100399792194 -8.315659984946251 -16.185799688100815 -33.199200332164764 0.0 0.0 0.0 86.4693009853363 -51.92319989204407 74.55400049686432 3.900260142982006 76.40690267086029 -3.448699861764908 -0.5212710192427039 0.9093520045280457 -6.337609961628914
-11.765129888895899 51.61640167236328 -52.897000048775226 -17.325899451971054 -28.89680027961731 13.37390050292015 14.709600359201431 9.222070276737213 2.700510062277317 2.1877999417483807 -6.815190017223358 0.8574700355529785 0.004902219916402828 12.54309967160225 7.667250037193298 3.619140163064003 -23.534098863601685 15.916099548339844 0.0 0.0 0.0 0.0 0.0 0.0 0.0 0.0 0.0 105.7040011882782 45.5413019657135 -56.864601373672485 -26.69580101966858 -44.783400893211365 93.01850438117981 -4.823389984667301 -51.16699934005737 -10.054800286889076 -1.5782575246703345e-09 2.5067947717616335e-09 -1.5347723092418164e-10 -2.7133495450470946e-09 4.1950443119276315e-09 -3.2741809263825417e-10 -1.5782575246703345e-09 2.5067947717616335e-09 -1.5347723092418164e-10 7.7309102565050125 5.474880114197731 0.41731400415301323 -1.5782575246703345e-09 2.5067947717616335e-09 -1.5347723092418164e-10 2.905540131032467 0.9651830233633518 0.102901995414868 -1.5782575246703345e-09 2.5067947717616335e-09 -1.5347723092418164e-10 10.27859978377819 0.7318009994924068 0.025912300043273717 -1.5782575246703345e-09 2.5067947717616335e-09 -1.5347723092418164e-10 2.221670038998127 -0.733487019315362 -0.2089200052432716 0.0 0.0 0.0 -47.524698972702026 16.450800597667694 -35.74609994888306 14.22029972076416 -7.133670151233673 -25.99830061197281 2.0122899301350117 36.82280033826828 -6.040150299668312 -8.415668162342627e-10 -9.768825748324161e-09 -3.5709035728359595e-09 -1.5520384977207868e-09 -1.6537171632080572e-08 -6.12885742157232e-09 -8.415668162342627e-10 -9.768825748324161e-09 -3.5709035728359595e-09 -7.7309102565050125 5.474880114197731 -0.41731400415301323 -8.415668162342627e-10 -9.768825748324161e-09 -3.5709035728359595e-09 -2.905540131032467 0.9651830233633518 -0.102901995414868 -8.415668162342627e-10 -9.768825748324161e-09 -3.5709035728359595e-09 -10.27859978377819 0.7318009994924068 -0.025912300043273717 -8.415668162342627e-10 -9.768825748324161e-09 -3.5709035728359595e-09 -2.221670038998127 -0.733487019315362 0.2089200052432716 0.0 0.0 0.0 -10.622599795460701 12.737400233745575 -2.884940095245838 0.08023609814699739 31.49840086698532 2.502259947359562 -8.228999823331833 -16.023000329732895 -33.23679953813553 0.0 0.0 0.0 86.76219820976257 -51.975202560424805 74.84770238399506 3.934919983148575 76.4858990907669 -3.4722499921917915 -0.5263919848948717 0.9244150388985872 -6.496980115771294
-11.781429889146239 51.569000244140625 -52.90400004899129 -17.469200491905212 -28.73400092124939 13.427799493074417 14.919500648975372 9.20819990336895 2.6141999289393425 2.163050025701523 -6.802540048956871 0.8336449787020683 0.0023194399182102643 12.55430057644844 7.650040313601494 3.6729801446199417 -23.483000099658966 15.889600664377213 0.0 0.0 0.0 0.0 0.0 0.0 0.0 0.0 0.0 105.68900227546692 45.593100786209106 -56.92659795284271 -26.699700951576233 -44.774300158023834 93.00010442733765 -4.736610129475594 -50.857300758361816 -9.943170100450516 -2.353957029299636e-09 4.174580681137741e-09 0.0 -4.05883326948242e-09 7.044604899419937e-09 -9.208633855450898e-11 -2.353957029299636e-09 4.174580681137741e-09 0.0 7.7309102565050125 5.474880114197731 0.41731400415301323 -2.353957029299636e-09 4.174580681137741e-09 0.0 2.905540131032467 0.9651830233633518 0.102901995414868 -2.353957029299636e-09 4.174580681137741e-09 0.0 10.27859978377819 0.7318009994924068 0.025912300043273717 -2.353957029299636e-09 4.174580681137741e-09 0.0 2.221670038998127 -0.733487019315362 -0.2089200052432716 0.0 0.0 0.0 -47.54449903964996 16.376400142908096 -35.8882999420166 14.146600663661957 -7.0732902735471725 -25.849100053310394 1.9854100048542023 36.61860108375549 -5.995230004191399 -1.5341328207796323e-09 -1.246235115104355e-08 -4.839648681809194e-09 -2.781135322038608e-09 -2.1023822682764148e-08 -8.3082341006957e-09 -1.5341328207796323e-09 -1.246235115104355e-08 -4.839648681809194e-09 -7.7309102565050125 5.474880114197731 -0.41731400415301323 -1.5341328207796323e-09 -1.246235115104355e-08 -4.839648681809194e-09 -2.905540131032467 0.9651830233633518 -0.102901995414868 -1.5341328207796323e-09 -1.246235115104355e-08 -4.839648681809194e-09 -10.27859978377819 0.7318009994924068 -0.025912300043273717 -1.5341328207796323e-09 -1.246235115104355e-08 -4.839648681809194e-09 -2.221670038998127 -0.733487019315362 0.2089200052432716 0.0 0.0 0.0 -10.43979987502098 12.96559989452362 -2.9569701477885246 0.08267930243164301 31.260400414466858 2.4997599609196186 -8.102359995245934 -15.838200151920319 -33.21709871292114 0.0 0.0 0.0 87.15410113334656 -52.023600339889526 75.15169858932495 3.9828399941325188 76.60129845142365 -3.5096299275755882 -0.5304549867287278 0.9384460095316172 -6.660989820957184
